<mxfile host="app.diagrams.net" agent="Mozilla/5.0 (X11; Linux x86_64) AppleWebKit/537.36 (KHTML, like Gecko) Chrome/131.0.0.0 Safari/537.36" version="25.0.3">
  <diagram id="C5RBs43oDa-KdzZeNtuy" name="Page-1">
    <mxGraphModel dx="2481" dy="740" grid="1" gridSize="10" guides="1" tooltips="1" connect="1" arrows="1" fold="1" page="1" pageScale="1" pageWidth="827" pageHeight="1169" math="0" shadow="0">
      <root>
        <mxCell id="WIyWlLk6GJQsqaUBKTNV-0" />
        <mxCell id="WIyWlLk6GJQsqaUBKTNV-1" parent="WIyWlLk6GJQsqaUBKTNV-0" />
        <mxCell id="ouxAtskDKZZMurjoeJfb-2" value="" style="edgeStyle=orthogonalEdgeStyle;rounded=0;orthogonalLoop=1;jettySize=auto;html=1;" parent="WIyWlLk6GJQsqaUBKTNV-1" source="ouxAtskDKZZMurjoeJfb-0" target="ouxAtskDKZZMurjoeJfb-1" edge="1">
          <mxGeometry relative="1" as="geometry" />
        </mxCell>
        <mxCell id="ouxAtskDKZZMurjoeJfb-0" value="Start" style="ellipse;whiteSpace=wrap;html=1;" parent="WIyWlLk6GJQsqaUBKTNV-1" vertex="1">
          <mxGeometry x="280" y="50" width="110" height="50" as="geometry" />
        </mxCell>
        <mxCell id="ouxAtskDKZZMurjoeJfb-4" value="" style="edgeStyle=orthogonalEdgeStyle;rounded=0;orthogonalLoop=1;jettySize=auto;html=1;" parent="WIyWlLk6GJQsqaUBKTNV-1" source="ouxAtskDKZZMurjoeJfb-1" target="ouxAtskDKZZMurjoeJfb-3" edge="1">
          <mxGeometry relative="1" as="geometry" />
        </mxCell>
        <mxCell id="ouxAtskDKZZMurjoeJfb-1" value="Setup" style="rounded=1;whiteSpace=wrap;html=1;" parent="WIyWlLk6GJQsqaUBKTNV-1" vertex="1">
          <mxGeometry x="282.5" y="130" width="105" height="50" as="geometry" />
        </mxCell>
        <mxCell id="ouxAtskDKZZMurjoeJfb-6" value="" style="edgeStyle=orthogonalEdgeStyle;rounded=0;orthogonalLoop=1;jettySize=auto;html=1;" parent="WIyWlLk6GJQsqaUBKTNV-1" source="ouxAtskDKZZMurjoeJfb-3" target="ouxAtskDKZZMurjoeJfb-5" edge="1">
          <mxGeometry relative="1" as="geometry" />
        </mxCell>
        <mxCell id="ouxAtskDKZZMurjoeJfb-11" value="Yes" style="edgeLabel;html=1;align=center;verticalAlign=middle;resizable=0;points=[];" parent="ouxAtskDKZZMurjoeJfb-6" vertex="1" connectable="0">
          <mxGeometry x="-0.1638" y="-4" relative="1" as="geometry">
            <mxPoint as="offset" />
          </mxGeometry>
        </mxCell>
        <mxCell id="ouxAtskDKZZMurjoeJfb-12" style="edgeStyle=orthogonalEdgeStyle;rounded=0;orthogonalLoop=1;jettySize=auto;html=1;exitX=1;exitY=0.5;exitDx=0;exitDy=0;" parent="WIyWlLk6GJQsqaUBKTNV-1" source="ouxAtskDKZZMurjoeJfb-3" edge="1">
          <mxGeometry relative="1" as="geometry">
            <mxPoint x="340" y="200" as="targetPoint" />
            <Array as="points">
              <mxPoint x="423" y="275" />
              <mxPoint x="423" y="200" />
            </Array>
          </mxGeometry>
        </mxCell>
        <mxCell id="ouxAtskDKZZMurjoeJfb-13" value="No" style="edgeLabel;html=1;align=center;verticalAlign=middle;resizable=0;points=[];" parent="ouxAtskDKZZMurjoeJfb-12" vertex="1" connectable="0">
          <mxGeometry x="-0.2742" y="1" relative="1" as="geometry">
            <mxPoint x="8" as="offset" />
          </mxGeometry>
        </mxCell>
        <mxCell id="ouxAtskDKZZMurjoeJfb-3" value="Has Data&lt;div&gt;&amp;nbsp;Been Received?&lt;/div&gt;" style="rhombus;whiteSpace=wrap;html=1;" parent="WIyWlLk6GJQsqaUBKTNV-1" vertex="1">
          <mxGeometry x="267.5" y="220" width="135" height="110" as="geometry" />
        </mxCell>
        <mxCell id="ouxAtskDKZZMurjoeJfb-8" value="" style="edgeStyle=orthogonalEdgeStyle;rounded=0;orthogonalLoop=1;jettySize=auto;html=1;" parent="WIyWlLk6GJQsqaUBKTNV-1" source="ouxAtskDKZZMurjoeJfb-5" target="ouxAtskDKZZMurjoeJfb-7" edge="1">
          <mxGeometry relative="1" as="geometry" />
        </mxCell>
        <mxCell id="ouxAtskDKZZMurjoeJfb-14" value="Yes" style="edgeLabel;html=1;align=center;verticalAlign=middle;resizable=0;points=[];" parent="ouxAtskDKZZMurjoeJfb-8" vertex="1" connectable="0">
          <mxGeometry x="-0.3178" y="-4" relative="1" as="geometry">
            <mxPoint x="-8" y="4" as="offset" />
          </mxGeometry>
        </mxCell>
        <mxCell id="ouxAtskDKZZMurjoeJfb-18" value="" style="edgeStyle=orthogonalEdgeStyle;rounded=0;orthogonalLoop=1;jettySize=auto;html=1;" parent="WIyWlLk6GJQsqaUBKTNV-1" source="ouxAtskDKZZMurjoeJfb-5" target="ouxAtskDKZZMurjoeJfb-17" edge="1">
          <mxGeometry relative="1" as="geometry" />
        </mxCell>
        <mxCell id="ouxAtskDKZZMurjoeJfb-5" value="Pick Unit&lt;div&gt;Select?&lt;/div&gt;" style="rhombus;whiteSpace=wrap;html=1;" parent="WIyWlLk6GJQsqaUBKTNV-1" vertex="1">
          <mxGeometry x="272.5" y="370" width="125" height="110" as="geometry" />
        </mxCell>
        <mxCell id="ouxAtskDKZZMurjoeJfb-9" style="edgeStyle=orthogonalEdgeStyle;rounded=0;orthogonalLoop=1;jettySize=auto;html=1;" parent="WIyWlLk6GJQsqaUBKTNV-1" source="ouxAtskDKZZMurjoeJfb-7" edge="1">
          <mxGeometry relative="1" as="geometry">
            <mxPoint x="330" y="200" as="targetPoint" />
            <Array as="points">
              <mxPoint x="170" y="200" />
            </Array>
          </mxGeometry>
        </mxCell>
        <mxCell id="ouxAtskDKZZMurjoeJfb-7" value="Picking Unit Logic" style="rounded=1;whiteSpace=wrap;html=1;" parent="WIyWlLk6GJQsqaUBKTNV-1" vertex="1">
          <mxGeometry x="110" y="395" width="120" height="60" as="geometry" />
        </mxCell>
        <mxCell id="ouxAtskDKZZMurjoeJfb-21" value="" style="edgeStyle=orthogonalEdgeStyle;rounded=0;orthogonalLoop=1;jettySize=auto;html=1;" parent="WIyWlLk6GJQsqaUBKTNV-1" source="ouxAtskDKZZMurjoeJfb-17" target="ouxAtskDKZZMurjoeJfb-20" edge="1">
          <mxGeometry relative="1" as="geometry" />
        </mxCell>
        <mxCell id="ouxAtskDKZZMurjoeJfb-25" value="" style="edgeStyle=orthogonalEdgeStyle;rounded=0;orthogonalLoop=1;jettySize=auto;html=1;" parent="WIyWlLk6GJQsqaUBKTNV-1" source="ouxAtskDKZZMurjoeJfb-17" target="ouxAtskDKZZMurjoeJfb-24" edge="1">
          <mxGeometry relative="1" as="geometry" />
        </mxCell>
        <mxCell id="ouxAtskDKZZMurjoeJfb-17" value="Is The&lt;div&gt;Velocity Byte&lt;/div&gt;&lt;div&gt;0?&lt;/div&gt;" style="rhombus;whiteSpace=wrap;html=1;" parent="WIyWlLk6GJQsqaUBKTNV-1" vertex="1">
          <mxGeometry x="272.5" y="510" width="125" height="110" as="geometry" />
        </mxCell>
        <mxCell id="ouxAtskDKZZMurjoeJfb-22" style="edgeStyle=orthogonalEdgeStyle;rounded=0;orthogonalLoop=1;jettySize=auto;html=1;" parent="WIyWlLk6GJQsqaUBKTNV-1" source="ouxAtskDKZZMurjoeJfb-20" edge="1">
          <mxGeometry relative="1" as="geometry">
            <mxPoint x="420" y="200" as="targetPoint" />
            <Array as="points">
              <mxPoint x="500" y="200" />
            </Array>
          </mxGeometry>
        </mxCell>
        <mxCell id="ouxAtskDKZZMurjoeJfb-20" value="Mute Selected&lt;div&gt;String&lt;/div&gt;" style="shape=parallelogram;perimeter=parallelogramPerimeter;whiteSpace=wrap;html=1;fixedSize=1;" parent="WIyWlLk6GJQsqaUBKTNV-1" vertex="1">
          <mxGeometry x="430" y="535" width="130" height="60" as="geometry" />
        </mxCell>
        <mxCell id="ouxAtskDKZZMurjoeJfb-26" style="edgeStyle=orthogonalEdgeStyle;rounded=0;orthogonalLoop=1;jettySize=auto;html=1;entryX=0.5;entryY=1;entryDx=0;entryDy=0;" parent="WIyWlLk6GJQsqaUBKTNV-1" source="ouxAtskDKZZMurjoeJfb-24" target="ouxAtskDKZZMurjoeJfb-20" edge="1">
          <mxGeometry relative="1" as="geometry" />
        </mxCell>
        <mxCell id="ouxAtskDKZZMurjoeJfb-32" value="" style="edgeStyle=orthogonalEdgeStyle;rounded=0;orthogonalLoop=1;jettySize=auto;html=1;" parent="WIyWlLk6GJQsqaUBKTNV-1" source="ouxAtskDKZZMurjoeJfb-24" target="ouxAtskDKZZMurjoeJfb-28" edge="1">
          <mxGeometry relative="1" as="geometry" />
        </mxCell>
        <mxCell id="ouxAtskDKZZMurjoeJfb-24" value="Has A&lt;div&gt;Note Mute&lt;/div&gt;&lt;div&gt;Been Issued?&lt;/div&gt;" style="rhombus;whiteSpace=wrap;html=1;" parent="WIyWlLk6GJQsqaUBKTNV-1" vertex="1">
          <mxGeometry x="272.5" y="670" width="125" height="110" as="geometry" />
        </mxCell>
        <mxCell id="ouxAtskDKZZMurjoeJfb-33" value="" style="edgeStyle=orthogonalEdgeStyle;rounded=0;orthogonalLoop=1;jettySize=auto;html=1;" parent="WIyWlLk6GJQsqaUBKTNV-1" source="ouxAtskDKZZMurjoeJfb-28" target="ouxAtskDKZZMurjoeJfb-29" edge="1">
          <mxGeometry relative="1" as="geometry" />
        </mxCell>
        <mxCell id="ouxAtskDKZZMurjoeJfb-41" value="" style="edgeStyle=orthogonalEdgeStyle;rounded=0;orthogonalLoop=1;jettySize=auto;html=1;" parent="WIyWlLk6GJQsqaUBKTNV-1" source="ouxAtskDKZZMurjoeJfb-28" target="ouxAtskDKZZMurjoeJfb-37" edge="1">
          <mxGeometry relative="1" as="geometry" />
        </mxCell>
        <mxCell id="Fo8sJGtcLgz-ELwJNGZ8-0" value="Yes" style="edgeLabel;html=1;align=center;verticalAlign=middle;resizable=0;points=[];" vertex="1" connectable="0" parent="ouxAtskDKZZMurjoeJfb-41">
          <mxGeometry x="-0.216" relative="1" as="geometry">
            <mxPoint x="1" as="offset" />
          </mxGeometry>
        </mxCell>
        <mxCell id="ouxAtskDKZZMurjoeJfb-28" value="Has E&amp;nbsp;&lt;div&gt;String Been&lt;/div&gt;&lt;div&gt;Called?&lt;/div&gt;" style="rhombus;whiteSpace=wrap;html=1;" parent="WIyWlLk6GJQsqaUBKTNV-1" vertex="1">
          <mxGeometry x="272.5" y="810" width="125" height="110" as="geometry" />
        </mxCell>
        <mxCell id="ouxAtskDKZZMurjoeJfb-34" value="" style="edgeStyle=orthogonalEdgeStyle;rounded=0;orthogonalLoop=1;jettySize=auto;html=1;" parent="WIyWlLk6GJQsqaUBKTNV-1" source="ouxAtskDKZZMurjoeJfb-29" target="ouxAtskDKZZMurjoeJfb-30" edge="1">
          <mxGeometry relative="1" as="geometry" />
        </mxCell>
        <mxCell id="ouxAtskDKZZMurjoeJfb-42" value="" style="edgeStyle=orthogonalEdgeStyle;rounded=0;orthogonalLoop=1;jettySize=auto;html=1;" parent="WIyWlLk6GJQsqaUBKTNV-1" source="ouxAtskDKZZMurjoeJfb-29" target="ouxAtskDKZZMurjoeJfb-39" edge="1">
          <mxGeometry relative="1" as="geometry" />
        </mxCell>
        <mxCell id="Fo8sJGtcLgz-ELwJNGZ8-1" value="Yes" style="edgeLabel;html=1;align=center;verticalAlign=middle;resizable=0;points=[];" vertex="1" connectable="0" parent="ouxAtskDKZZMurjoeJfb-42">
          <mxGeometry x="-0.2952" relative="1" as="geometry">
            <mxPoint x="1" as="offset" />
          </mxGeometry>
        </mxCell>
        <mxCell id="ouxAtskDKZZMurjoeJfb-29" value="Has A&lt;div&gt;String Been&lt;/div&gt;&lt;div&gt;Called?&lt;/div&gt;" style="rhombus;whiteSpace=wrap;html=1;" parent="WIyWlLk6GJQsqaUBKTNV-1" vertex="1">
          <mxGeometry x="272.5" y="960" width="125" height="110" as="geometry" />
        </mxCell>
        <mxCell id="ouxAtskDKZZMurjoeJfb-35" value="" style="edgeStyle=orthogonalEdgeStyle;rounded=0;orthogonalLoop=1;jettySize=auto;html=1;" parent="WIyWlLk6GJQsqaUBKTNV-1" source="ouxAtskDKZZMurjoeJfb-30" target="ouxAtskDKZZMurjoeJfb-31" edge="1">
          <mxGeometry relative="1" as="geometry" />
        </mxCell>
        <mxCell id="ouxAtskDKZZMurjoeJfb-43" value="" style="edgeStyle=orthogonalEdgeStyle;rounded=0;orthogonalLoop=1;jettySize=auto;html=1;" parent="WIyWlLk6GJQsqaUBKTNV-1" source="ouxAtskDKZZMurjoeJfb-30" target="ouxAtskDKZZMurjoeJfb-38" edge="1">
          <mxGeometry relative="1" as="geometry" />
        </mxCell>
        <mxCell id="Fo8sJGtcLgz-ELwJNGZ8-2" value="Yes" style="edgeLabel;html=1;align=center;verticalAlign=middle;resizable=0;points=[];" vertex="1" connectable="0" parent="ouxAtskDKZZMurjoeJfb-43">
          <mxGeometry x="-0.3333" y="-2" relative="1" as="geometry">
            <mxPoint x="1" as="offset" />
          </mxGeometry>
        </mxCell>
        <mxCell id="ouxAtskDKZZMurjoeJfb-30" value="Has D&lt;div&gt;String Been&lt;/div&gt;&lt;div&gt;Called?&lt;span style=&quot;color: rgba(0, 0, 0, 0); font-family: monospace; font-size: 0px; text-align: start; text-wrap-mode: nowrap; background-color: initial;&quot;&gt;%3CmxGraphModel%3E%3Croot%3E%3CmxCell%20id%3D%220%22%2F%3E%3CmxCell%20id%3D%221%22%20parent%3D%220%22%2F%3E%3CmxCell%20id%3D%222%22%20value%3D%22Has%20A%26lt%3Bdiv%26gt%3BNote%20Mute%26lt%3B%2Fdiv%26gt%3B%26lt%3Bdiv%26gt%3BBeen%20Issued%3F%26lt%3B%2Fdiv%26gt%3B%22%20style%3D%22rhombus%3BwhiteSpace%3Dwrap%3Bhtml%3D1%3B%22%20vertex%3D%221%22%20parent%3D%221%22%3E%3CmxGeometry%20x%3D%22272.5%22%20y%3D%22670%22%20width%3D%22125%22%20height%3D%22110%22%20as%3D%22geometry%22%2F%3E%3C%2FmxCell%3E%3C%2Froot%3E%3C%2FmxGraphModel%3E&lt;/span&gt;&lt;/div&gt;" style="rhombus;whiteSpace=wrap;html=1;" parent="WIyWlLk6GJQsqaUBKTNV-1" vertex="1">
          <mxGeometry x="272.5" y="1100" width="125" height="110" as="geometry" />
        </mxCell>
        <mxCell id="ouxAtskDKZZMurjoeJfb-44" value="" style="edgeStyle=orthogonalEdgeStyle;rounded=0;orthogonalLoop=1;jettySize=auto;html=1;" parent="WIyWlLk6GJQsqaUBKTNV-1" source="ouxAtskDKZZMurjoeJfb-31" target="ouxAtskDKZZMurjoeJfb-40" edge="1">
          <mxGeometry relative="1" as="geometry" />
        </mxCell>
        <mxCell id="Fo8sJGtcLgz-ELwJNGZ8-3" value="Yes" style="edgeLabel;html=1;align=center;verticalAlign=middle;resizable=0;points=[];" vertex="1" connectable="0" parent="ouxAtskDKZZMurjoeJfb-44">
          <mxGeometry x="-0.2952" relative="1" as="geometry">
            <mxPoint x="1" as="offset" />
          </mxGeometry>
        </mxCell>
        <mxCell id="ouxAtskDKZZMurjoeJfb-113" style="edgeStyle=orthogonalEdgeStyle;rounded=0;orthogonalLoop=1;jettySize=auto;html=1;" parent="WIyWlLk6GJQsqaUBKTNV-1" source="ouxAtskDKZZMurjoeJfb-31" edge="1">
          <mxGeometry relative="1" as="geometry">
            <mxPoint x="490" y="730" as="targetPoint" />
          </mxGeometry>
        </mxCell>
        <mxCell id="Fo8sJGtcLgz-ELwJNGZ8-4" value="No" style="edgeLabel;html=1;align=center;verticalAlign=middle;resizable=0;points=[];" vertex="1" connectable="0" parent="ouxAtskDKZZMurjoeJfb-113">
          <mxGeometry x="-0.9103" relative="1" as="geometry">
            <mxPoint as="offset" />
          </mxGeometry>
        </mxCell>
        <mxCell id="ouxAtskDKZZMurjoeJfb-31" value="Has G&lt;div&gt;String Been&lt;/div&gt;&lt;div&gt;Called?&lt;span style=&quot;color: rgba(0, 0, 0, 0); font-family: monospace; font-size: 0px; text-align: start; text-wrap-mode: nowrap; background-color: initial;&quot;&gt;%3CmxGraphModel%3E%3Croot%3E%3CmxCell%20id%3D%220%22%2F%3E%3CmxCell%20id%3D%221%22%20parent%3D%220%22%2F%3E%3CmxCell%20id%3D%222%22%20value%3D%22Has%20A%26lt%3Bdiv%26gt%3BNote%20Mute%26lt%3B%2Fdiv%26gt%3B%26lt%3Bdiv%26gt%3BBeen%20Issued%3F%26lt%3B%2Fdiv%26gt%3B%22%20style%3D%22rhombus%3BwhiteSpace%3Dwrap%3Bhtml%3D1%3B%22%20vertex%3D%221%22%20parent%3D%221%22%3E%3CmxGeometry%20x%3D%22272.5%22%20y%3D%22670%22%20width%3D%22125%22%20height%3D%22110%22%20as%3D%22geometry%22%2F%3E%3C%2FmxCell%3E%3C%2Froot%3E%3C%2FmxGraphModel%3E&lt;/span&gt;&lt;/div&gt;" style="rhombus;whiteSpace=wrap;html=1;" parent="WIyWlLk6GJQsqaUBKTNV-1" vertex="1">
          <mxGeometry x="272.5" y="1240" width="125" height="110" as="geometry" />
        </mxCell>
        <mxCell id="ouxAtskDKZZMurjoeJfb-49" style="edgeStyle=orthogonalEdgeStyle;rounded=0;orthogonalLoop=1;jettySize=auto;html=1;" parent="WIyWlLk6GJQsqaUBKTNV-1" source="ouxAtskDKZZMurjoeJfb-37" edge="1">
          <mxGeometry relative="1" as="geometry">
            <mxPoint x="-10" y="1010" as="targetPoint" />
          </mxGeometry>
        </mxCell>
        <mxCell id="ouxAtskDKZZMurjoeJfb-37" value="Pluck E String&lt;span style=&quot;color: rgba(0, 0, 0, 0); font-family: monospace; font-size: 0px; text-align: start; text-wrap-mode: nowrap;&quot;&gt;%3CmxGraphModel%3E%3Croot%3E%3CmxCell%20id%3D%220%22%2F%3E%3CmxCell%20id%3D%221%22%20parent%3D%220%22%2F%3E%3CmxCell%20id%3D%222%22%20value%3D%22Has%20D%26lt%3Bdiv%26gt%3BString%20Been%26lt%3B%2Fdiv%26gt%3B%26lt%3Bdiv%26gt%3BCalled%3F%26lt%3Bspan%20style%3D%26quot%3Bcolor%3A%20rgba(0%2C%200%2C%200%2C%200)%3B%20font-family%3A%20monospace%3B%20font-size%3A%200px%3B%20text-align%3A%20start%3B%20text-wrap-mode%3A%20nowrap%3B%20background-color%3A%20initial%3B%26quot%3B%26gt%3B%253CmxGraphModel%253E%253Croot%253E%253CmxCell%2520id%253D%25220%2522%252F%253E%253CmxCell%2520id%253D%25221%2522%2520parent%253D%25220%2522%252F%253E%253CmxCell%2520id%253D%25222%2522%2520value%253D%2522Has%2520A%2526lt%253Bdiv%2526gt%253BNote%2520Mute%2526lt%253B%252Fdiv%2526gt%253B%2526lt%253Bdiv%2526gt%253BBeen%2520Issued%253F%2526lt%253B%252Fdiv%2526gt%253B%2522%2520style%253D%2522rhombus%253BwhiteSpace%253Dwrap%253Bhtml%253D1%253B%2522%2520vertex%253D%25221%2522%2520parent%253D%25221%2522%253E%253CmxGeometry%2520x%253D%2522272.5%2522%2520y%253D%2522670%2522%2520width%253D%2522125%2522%2520height%253D%2522110%2522%2520as%253D%2522geometry%2522%252F%253E%253C%252FmxCell%253E%253C%252Froot%253E%253C%252FmxGraphModel%253E%26lt%3B%2Fspan%26gt%3B%26lt%3B%2Fdiv%26gt%3B%22%20style%3D%22rhombus%3BwhiteSpace%3Dwrap%3Bhtml%3D1%3B%22%20vertex%3D%221%22%20parent%3D%221%22%3E%3CmxGeometry%20x%3D%22272.5%22%20y%3D%221070%22%20width%3D%22125%22%20height%3D%22110%22%20as%3D%22geometry%22%2F%3E%3C%2FmxCell%3E%3C%2Froot%3E%3C%2FmxGraphModel%3E&lt;/span&gt;" style="shape=parallelogram;perimeter=parallelogramPerimeter;whiteSpace=wrap;html=1;fixedSize=1;" parent="WIyWlLk6GJQsqaUBKTNV-1" vertex="1">
          <mxGeometry x="100" y="835" width="120" height="60" as="geometry" />
        </mxCell>
        <mxCell id="ouxAtskDKZZMurjoeJfb-47" style="edgeStyle=orthogonalEdgeStyle;rounded=0;orthogonalLoop=1;jettySize=auto;html=1;entryX=0.5;entryY=1;entryDx=0;entryDy=0;" parent="WIyWlLk6GJQsqaUBKTNV-1" source="ouxAtskDKZZMurjoeJfb-38" target="ouxAtskDKZZMurjoeJfb-45" edge="1">
          <mxGeometry relative="1" as="geometry" />
        </mxCell>
        <mxCell id="ouxAtskDKZZMurjoeJfb-38" value="Pluck D String&lt;span style=&quot;color: rgba(0, 0, 0, 0); font-family: monospace; font-size: 0px; text-align: start; text-wrap-mode: nowrap;&quot;&gt;%3CmxGraphModel%3E%3Croot%3E%3CmxCell%20id%3D%220%22%2F%3E%3CmxCell%20id%3D%221%22%20parent%3D%220%22%2F%3E%3CmxCell%20id%3D%222%22%20value%3D%22Has%20D%26lt%3Bdiv%26gt%3BString%20Been%26lt%3B%2Fdiv%26gt%3B%26lt%3Bdiv%26gt%3BCalled%3F%26lt%3Bspan%20style%3D%26quot%3Bcolor%3A%20rgba(0%2C%200%2C%200%2C%200)%3B%20font-family%3A%20monospace%3B%20font-size%3A%200px%3B%20text-align%3A%20start%3B%20text-wrap-mode%3A%20nowrap%3B%20background-color%3A%20initial%3B%26quot%3B%26gt%3B%253CmxGraphModel%253E%253Croot%253E%253CmxCell%2520id%253D%25220%2522%252F%253E%253CmxCell%2520id%253D%25221%2522%2520parent%253D%25220%2522%252F%253E%253CmxCell%2520id%253D%25222%2522%2520value%253D%2522Has%2520A%2526lt%253Bdiv%2526gt%253BNote%2520Mute%2526lt%253B%252Fdiv%2526gt%253B%2526lt%253Bdiv%2526gt%253BBeen%2520Issued%253F%2526lt%253B%252Fdiv%2526gt%253B%2522%2520style%253D%2522rhombus%253BwhiteSpace%253Dwrap%253Bhtml%253D1%253B%2522%2520vertex%253D%25221%2522%2520parent%253D%25221%2522%253E%253CmxGeometry%2520x%253D%2522272.5%2522%2520y%253D%2522670%2522%2520width%253D%2522125%2522%2520height%253D%2522110%2522%2520as%253D%2522geometry%2522%252F%253E%253C%252FmxCell%253E%253C%252Froot%253E%253C%252FmxGraphModel%253E%26lt%3B%2Fspan%26gt%3B%26lt%3B%2Fdiv%26gt%3B%22%20style%3D%22rhombus%3BwhiteSpace%3Dwrap%3Bhtml%3D1%3B%22%20vertex%3D%221%22%20parent%3D%221%22%3E%3CmxGeometry%20x%3D%22272.5%22%20y%3D%221070%22%20width%3D%22125%22%20height%3D%22110%22%20as%3D%22geometry%22%2F%3E%3C%2FmxCell%3E%3C%2Froot%3E%3C%2FmxGraphModel%3E&lt;/span&gt;" style="shape=parallelogram;perimeter=parallelogramPerimeter;whiteSpace=wrap;html=1;fixedSize=1;" parent="WIyWlLk6GJQsqaUBKTNV-1" vertex="1">
          <mxGeometry x="110" y="1125" width="120" height="60" as="geometry" />
        </mxCell>
        <mxCell id="ouxAtskDKZZMurjoeJfb-46" style="edgeStyle=orthogonalEdgeStyle;rounded=0;orthogonalLoop=1;jettySize=auto;html=1;entryX=0.5;entryY=0;entryDx=0;entryDy=0;" parent="WIyWlLk6GJQsqaUBKTNV-1" source="ouxAtskDKZZMurjoeJfb-39" target="ouxAtskDKZZMurjoeJfb-45" edge="1">
          <mxGeometry relative="1" as="geometry" />
        </mxCell>
        <mxCell id="ouxAtskDKZZMurjoeJfb-39" value="Pluck A&lt;span style=&quot;background-color: initial;&quot;&gt;&amp;nbsp;String&lt;/span&gt;&lt;span style=&quot;background-color: initial; text-wrap-mode: nowrap; color: rgba(0, 0, 0, 0); font-family: monospace; font-size: 0px; text-align: start;&quot;&gt;%3CmxGraphModel%3E%3Croot%3E%3CmxCell%20id%3D%220%22%2F%3E%3CmxCell%20id%3D%221%22%20parent%3D%220%22%2F%3E%3CmxCell%20id%3D%222%22%20value%3D%22Has%20D%26lt%3Bdiv%26gt%3BString%20Been%26lt%3B%2Fdiv%26gt%3B%26lt%3Bdiv%26gt%3BCalled%3F%26lt%3Bspan%20style%3D%26quot%3Bcolor%3A%20rgba(0%2C%200%2C%200%2C%200)%3B%20font-family%3A%20monospace%3B%20font-size%3A%200px%3B%20text-align%3A%20start%3B%20text-wrap-mode%3A%20nowrap%3B%20background-color%3A%20initial%3B%26quot%3B%26gt%3B%253CmxGraphModel%253E%253Croot%253E%253CmxCell%2520id%253D%25220%2522%252F%253E%253CmxCell%2520id%253D%25221%2522%2520parent%253D%25220%2522%252F%253E%253CmxCell%2520id%253D%25222%2522%2520value%253D%2522Has%2520A%2526lt%253Bdiv%2526gt%253BNote%2520Mute%2526lt%253B%252Fdiv%2526gt%253B%2526lt%253Bdiv%2526gt%253BBeen%2520Issued%253F%2526lt%253B%252Fdiv%2526gt%253B%2522%2520style%253D%2522rhombus%253BwhiteSpace%253Dwrap%253Bhtml%253D1%253B%2522%2520vertex%253D%25221%2522%2520parent%253D%25221%2522%253E%253CmxGeometry%2520x%253D%2522272.5%2522%2520y%253D%2522670%2522%2520width%253D%2522125%2522%2520height%253D%2522110%2522%2520as%253D%2522geometry%2522%252F%253E%253C%252FmxCell%253E%253C%252Froot%253E%253C%252FmxGraphModel%253E%26lt%3B%2Fspan%26gt%3B%26lt%3B%2Fdiv%26gt%3B%22%20style%3D%22rhombus%3BwhiteSpace%3Dwrap%3Bhtml%3D1%3B%22%20vertex%3D%221%22%20parent%3D%221%22%3E%3CmxGeometry%20x%3D%22272.5%22%20y%3D%221070%22%20width%3D%22125%22%20height%3D%22110%22%20as%3D%22geometry%22%2F%3E%3C%2FmxCell%3E%3C%2Froot%3E%3C%2FmxGraphModel%3E&lt;/span&gt;" style="shape=parallelogram;perimeter=parallelogramPerimeter;whiteSpace=wrap;html=1;fixedSize=1;" parent="WIyWlLk6GJQsqaUBKTNV-1" vertex="1">
          <mxGeometry x="110" y="985" width="120" height="60" as="geometry" />
        </mxCell>
        <mxCell id="ouxAtskDKZZMurjoeJfb-48" style="edgeStyle=orthogonalEdgeStyle;rounded=0;orthogonalLoop=1;jettySize=auto;html=1;" parent="WIyWlLk6GJQsqaUBKTNV-1" source="ouxAtskDKZZMurjoeJfb-40" edge="1">
          <mxGeometry relative="1" as="geometry">
            <mxPoint x="-10" y="1160" as="targetPoint" />
          </mxGeometry>
        </mxCell>
        <mxCell id="ouxAtskDKZZMurjoeJfb-40" value="Pluck G String&lt;span style=&quot;color: rgba(0, 0, 0, 0); font-family: monospace; font-size: 0px; text-align: start; text-wrap-mode: nowrap;&quot;&gt;%3CmxGraphModel%3E%3Croot%3E%3CmxCell%20id%3D%220%22%2F%3E%3CmxCell%20id%3D%221%22%20parent%3D%220%22%2F%3E%3CmxCell%20id%3D%222%22%20value%3D%22Has%20D%26lt%3Bdiv%26gt%3BString%20Been%26lt%3B%2Fdiv%26gt%3B%26lt%3Bdiv%26gt%3BCalled%3F%26lt%3Bspan%20style%3D%26quot%3Bcolor%3A%20rgba(0%2C%200%2C%200%2C%200)%3B%20font-family%3A%20monospace%3B%20font-size%3A%200px%3B%20text-align%3A%20start%3B%20text-wrap-mode%3A%20nowrap%3B%20background-color%3A%20initial%3B%26quot%3B%26gt%3B%253CmxGraphModel%253E%253Croot%253E%253CmxCell%2520id%253D%25220%2522%252F%253E%253CmxCell%2520id%253D%25221%2522%2520parent%253D%25220%2522%252F%253E%253CmxCell%2520id%253D%25222%2522%2520value%253D%2522Has%2520A%2526lt%253Bdiv%2526gt%253BNote%2520Mute%2526lt%253B%252Fdiv%2526gt%253B%2526lt%253Bdiv%2526gt%253BBeen%2520Issued%253F%2526lt%253B%252Fdiv%2526gt%253B%2522%2520style%253D%2522rhombus%253BwhiteSpace%253Dwrap%253Bhtml%253D1%253B%2522%2520vertex%253D%25221%2522%2520parent%253D%25221%2522%253E%253CmxGeometry%2520x%253D%2522272.5%2522%2520y%253D%2522670%2522%2520width%253D%2522125%2522%2520height%253D%2522110%2522%2520as%253D%2522geometry%2522%252F%253E%253C%252FmxCell%253E%253C%252Froot%253E%253C%252FmxGraphModel%253E%26lt%3B%2Fspan%26gt%3B%26lt%3B%2Fdiv%26gt%3B%22%20style%3D%22rhombus%3BwhiteSpace%3Dwrap%3Bhtml%3D1%3B%22%20vertex%3D%221%22%20parent%3D%221%22%3E%3CmxGeometry%20x%3D%22272.5%22%20y%3D%221070%22%20width%3D%22125%22%20height%3D%22110%22%20as%3D%22geometry%22%2F%3E%3C%2FmxCell%3E%3C%2Froot%3E%3C%2FmxGraphModel%3E&lt;/span&gt;" style="shape=parallelogram;perimeter=parallelogramPerimeter;whiteSpace=wrap;html=1;fixedSize=1;" parent="WIyWlLk6GJQsqaUBKTNV-1" vertex="1">
          <mxGeometry x="110" y="1265" width="120" height="60" as="geometry" />
        </mxCell>
        <mxCell id="ouxAtskDKZZMurjoeJfb-52" value="" style="edgeStyle=orthogonalEdgeStyle;rounded=0;orthogonalLoop=1;jettySize=auto;html=1;" parent="WIyWlLk6GJQsqaUBKTNV-1" source="ouxAtskDKZZMurjoeJfb-45" edge="1">
          <mxGeometry relative="1" as="geometry">
            <mxPoint x="-110" y="1095" as="targetPoint" />
          </mxGeometry>
        </mxCell>
        <mxCell id="ouxAtskDKZZMurjoeJfb-45" value="Wait 20ms" style="rounded=1;whiteSpace=wrap;html=1;" parent="WIyWlLk6GJQsqaUBKTNV-1" vertex="1">
          <mxGeometry x="-70" y="1065" width="120" height="60" as="geometry" />
        </mxCell>
        <mxCell id="ouxAtskDKZZMurjoeJfb-53" style="edgeStyle=orthogonalEdgeStyle;rounded=0;orthogonalLoop=1;jettySize=auto;html=1;" parent="WIyWlLk6GJQsqaUBKTNV-1" edge="1">
          <mxGeometry relative="1" as="geometry">
            <mxPoint x="170" y="200" as="targetPoint" />
            <mxPoint x="-160" y="1065" as="sourcePoint" />
            <Array as="points">
              <mxPoint x="-160" y="200" />
            </Array>
          </mxGeometry>
        </mxCell>
        <mxCell id="ouxAtskDKZZMurjoeJfb-58" value="" style="edgeStyle=orthogonalEdgeStyle;rounded=0;orthogonalLoop=1;jettySize=auto;html=1;" parent="WIyWlLk6GJQsqaUBKTNV-1" source="ouxAtskDKZZMurjoeJfb-68" target="ouxAtskDKZZMurjoeJfb-57" edge="1">
          <mxGeometry relative="1" as="geometry" />
        </mxCell>
        <mxCell id="ouxAtskDKZZMurjoeJfb-54" value="ISR" style="ellipse;whiteSpace=wrap;html=1;" parent="WIyWlLk6GJQsqaUBKTNV-1" vertex="1">
          <mxGeometry x="720" y="52.5" width="120" height="57.5" as="geometry" />
        </mxCell>
        <mxCell id="ouxAtskDKZZMurjoeJfb-56" value="Start Timer" style="rounded=1;whiteSpace=wrap;html=1;" parent="WIyWlLk6GJQsqaUBKTNV-1" vertex="1">
          <mxGeometry x="-230" y="1065" width="120" height="60" as="geometry" />
        </mxCell>
        <mxCell id="ouxAtskDKZZMurjoeJfb-62" value="" style="edgeStyle=orthogonalEdgeStyle;rounded=0;orthogonalLoop=1;jettySize=auto;html=1;" parent="WIyWlLk6GJQsqaUBKTNV-1" source="ouxAtskDKZZMurjoeJfb-57" target="ouxAtskDKZZMurjoeJfb-60" edge="1">
          <mxGeometry relative="1" as="geometry" />
        </mxCell>
        <mxCell id="ouxAtskDKZZMurjoeJfb-84" value="" style="edgeStyle=orthogonalEdgeStyle;rounded=0;orthogonalLoop=1;jettySize=auto;html=1;" parent="WIyWlLk6GJQsqaUBKTNV-1" source="ouxAtskDKZZMurjoeJfb-86" target="ouxAtskDKZZMurjoeJfb-83" edge="1">
          <mxGeometry relative="1" as="geometry" />
        </mxCell>
        <mxCell id="ouxAtskDKZZMurjoeJfb-57" value="Is I2C Buffer&lt;div&gt;Full?&lt;/div&gt;" style="rhombus;whiteSpace=wrap;html=1;" parent="WIyWlLk6GJQsqaUBKTNV-1" vertex="1">
          <mxGeometry x="717.5" y="240" width="125" height="110" as="geometry" />
        </mxCell>
        <mxCell id="ouxAtskDKZZMurjoeJfb-63" value="" style="edgeStyle=orthogonalEdgeStyle;rounded=0;orthogonalLoop=1;jettySize=auto;html=1;" parent="WIyWlLk6GJQsqaUBKTNV-1" source="ouxAtskDKZZMurjoeJfb-60" target="ouxAtskDKZZMurjoeJfb-61" edge="1">
          <mxGeometry relative="1" as="geometry" />
        </mxCell>
        <mxCell id="ouxAtskDKZZMurjoeJfb-79" value="No" style="edgeLabel;html=1;align=center;verticalAlign=middle;resizable=0;points=[];" parent="ouxAtskDKZZMurjoeJfb-63" vertex="1" connectable="0">
          <mxGeometry x="-0.5802" y="1" relative="1" as="geometry">
            <mxPoint as="offset" />
          </mxGeometry>
        </mxCell>
        <mxCell id="ouxAtskDKZZMurjoeJfb-66" value="" style="edgeStyle=orthogonalEdgeStyle;rounded=0;orthogonalLoop=1;jettySize=auto;html=1;" parent="WIyWlLk6GJQsqaUBKTNV-1" source="ouxAtskDKZZMurjoeJfb-60" target="ouxAtskDKZZMurjoeJfb-64" edge="1">
          <mxGeometry relative="1" as="geometry" />
        </mxCell>
        <mxCell id="ouxAtskDKZZMurjoeJfb-81" value="Yes" style="edgeLabel;html=1;align=center;verticalAlign=middle;resizable=0;points=[];" parent="ouxAtskDKZZMurjoeJfb-66" vertex="1" connectable="0">
          <mxGeometry x="-0.3653" y="-3" relative="1" as="geometry">
            <mxPoint x="3" y="-3" as="offset" />
          </mxGeometry>
        </mxCell>
        <mxCell id="ouxAtskDKZZMurjoeJfb-60" value="Has I2C&amp;nbsp;&lt;div&gt;Stop Been&amp;nbsp;&lt;/div&gt;&lt;div&gt;Issued?&lt;/div&gt;" style="rhombus;whiteSpace=wrap;html=1;" parent="WIyWlLk6GJQsqaUBKTNV-1" vertex="1">
          <mxGeometry x="717.5" y="430" width="125" height="110" as="geometry" />
        </mxCell>
        <mxCell id="ouxAtskDKZZMurjoeJfb-71" value="" style="edgeStyle=orthogonalEdgeStyle;rounded=0;orthogonalLoop=1;jettySize=auto;html=1;" parent="WIyWlLk6GJQsqaUBKTNV-1" source="ouxAtskDKZZMurjoeJfb-61" target="ouxAtskDKZZMurjoeJfb-70" edge="1">
          <mxGeometry relative="1" as="geometry" />
        </mxCell>
        <mxCell id="ouxAtskDKZZMurjoeJfb-78" value="No" style="edgeLabel;html=1;align=center;verticalAlign=middle;resizable=0;points=[];" parent="ouxAtskDKZZMurjoeJfb-71" vertex="1" connectable="0">
          <mxGeometry x="-0.1063" y="-1" relative="1" as="geometry">
            <mxPoint as="offset" />
          </mxGeometry>
        </mxCell>
        <mxCell id="ouxAtskDKZZMurjoeJfb-75" value="" style="edgeStyle=orthogonalEdgeStyle;rounded=0;orthogonalLoop=1;jettySize=auto;html=1;" parent="WIyWlLk6GJQsqaUBKTNV-1" source="ouxAtskDKZZMurjoeJfb-61" target="ouxAtskDKZZMurjoeJfb-74" edge="1">
          <mxGeometry relative="1" as="geometry" />
        </mxCell>
        <mxCell id="ouxAtskDKZZMurjoeJfb-77" value="Yes" style="edgeLabel;html=1;align=center;verticalAlign=middle;resizable=0;points=[];" parent="ouxAtskDKZZMurjoeJfb-75" vertex="1" connectable="0">
          <mxGeometry x="-0.4215" relative="1" as="geometry">
            <mxPoint x="6" as="offset" />
          </mxGeometry>
        </mxCell>
        <mxCell id="ouxAtskDKZZMurjoeJfb-61" value="Has Timer&lt;div&gt;Overflown?&lt;/div&gt;" style="rhombus;whiteSpace=wrap;html=1;direction=south;" parent="WIyWlLk6GJQsqaUBKTNV-1" vertex="1">
          <mxGeometry x="721.25" y="580" width="117.5" height="110" as="geometry" />
        </mxCell>
        <mxCell id="ouxAtskDKZZMurjoeJfb-67" value="" style="edgeStyle=orthogonalEdgeStyle;rounded=0;orthogonalLoop=1;jettySize=auto;html=1;" parent="WIyWlLk6GJQsqaUBKTNV-1" source="ouxAtskDKZZMurjoeJfb-64" target="ouxAtskDKZZMurjoeJfb-65" edge="1">
          <mxGeometry relative="1" as="geometry" />
        </mxCell>
        <mxCell id="ouxAtskDKZZMurjoeJfb-64" value="Disable Serial Port" style="rounded=1;whiteSpace=wrap;html=1;" parent="WIyWlLk6GJQsqaUBKTNV-1" vertex="1">
          <mxGeometry x="890" y="455" width="120" height="60" as="geometry" />
        </mxCell>
        <mxCell id="ouxAtskDKZZMurjoeJfb-80" style="edgeStyle=orthogonalEdgeStyle;rounded=0;orthogonalLoop=1;jettySize=auto;html=1;" parent="WIyWlLk6GJQsqaUBKTNV-1" source="ouxAtskDKZZMurjoeJfb-65" edge="1">
          <mxGeometry relative="1" as="geometry">
            <mxPoint x="930" y="850" as="targetPoint" />
            <Array as="points">
              <mxPoint x="1110" y="850" />
            </Array>
          </mxGeometry>
        </mxCell>
        <mxCell id="ouxAtskDKZZMurjoeJfb-65" value="Open Serial Port" style="rounded=1;whiteSpace=wrap;html=1;" parent="WIyWlLk6GJQsqaUBKTNV-1" vertex="1">
          <mxGeometry x="1050" y="455" width="120" height="60" as="geometry" />
        </mxCell>
        <mxCell id="ouxAtskDKZZMurjoeJfb-69" value="" style="edgeStyle=orthogonalEdgeStyle;rounded=0;orthogonalLoop=1;jettySize=auto;html=1;" parent="WIyWlLk6GJQsqaUBKTNV-1" source="ouxAtskDKZZMurjoeJfb-54" target="ouxAtskDKZZMurjoeJfb-68" edge="1">
          <mxGeometry relative="1" as="geometry">
            <mxPoint x="780" y="110" as="sourcePoint" />
            <mxPoint x="780" y="240" as="targetPoint" />
          </mxGeometry>
        </mxCell>
        <mxCell id="ouxAtskDKZZMurjoeJfb-68" value="Safe Working State" style="rounded=1;whiteSpace=wrap;html=1;" parent="WIyWlLk6GJQsqaUBKTNV-1" vertex="1">
          <mxGeometry x="720" y="140" width="120" height="60" as="geometry" />
        </mxCell>
        <mxCell id="ouxAtskDKZZMurjoeJfb-73" value="" style="edgeStyle=orthogonalEdgeStyle;rounded=0;orthogonalLoop=1;jettySize=auto;html=1;" parent="WIyWlLk6GJQsqaUBKTNV-1" source="ouxAtskDKZZMurjoeJfb-70" target="ouxAtskDKZZMurjoeJfb-72" edge="1">
          <mxGeometry relative="1" as="geometry" />
        </mxCell>
        <mxCell id="ouxAtskDKZZMurjoeJfb-70" value="Restore Working&amp;nbsp;&lt;div&gt;State&lt;/div&gt;" style="rounded=1;whiteSpace=wrap;html=1;" parent="WIyWlLk6GJQsqaUBKTNV-1" vertex="1">
          <mxGeometry x="720" y="730" width="120" height="60" as="geometry" />
        </mxCell>
        <mxCell id="ouxAtskDKZZMurjoeJfb-72" value="Return" style="rounded=1;whiteSpace=wrap;html=1;" parent="WIyWlLk6GJQsqaUBKTNV-1" vertex="1">
          <mxGeometry x="720" y="820" width="120" height="60" as="geometry" />
        </mxCell>
        <mxCell id="ouxAtskDKZZMurjoeJfb-76" style="edgeStyle=orthogonalEdgeStyle;rounded=0;orthogonalLoop=1;jettySize=auto;html=1;entryX=1;entryY=0.5;entryDx=0;entryDy=0;" parent="WIyWlLk6GJQsqaUBKTNV-1" source="ouxAtskDKZZMurjoeJfb-74" target="ouxAtskDKZZMurjoeJfb-72" edge="1">
          <mxGeometry relative="1" as="geometry">
            <Array as="points">
              <mxPoint x="930" y="850" />
            </Array>
          </mxGeometry>
        </mxCell>
        <mxCell id="ouxAtskDKZZMurjoeJfb-74" value="Clear Enabled&lt;div&gt;Outputs&lt;/div&gt;" style="shape=parallelogram;perimeter=parallelogramPerimeter;whiteSpace=wrap;html=1;fixedSize=1;" parent="WIyWlLk6GJQsqaUBKTNV-1" vertex="1">
          <mxGeometry x="880" y="605" width="120" height="60" as="geometry" />
        </mxCell>
        <mxCell id="ouxAtskDKZZMurjoeJfb-91" style="edgeStyle=orthogonalEdgeStyle;rounded=0;orthogonalLoop=1;jettySize=auto;html=1;exitX=0.5;exitY=1;exitDx=0;exitDy=0;" parent="WIyWlLk6GJQsqaUBKTNV-1" source="ouxAtskDKZZMurjoeJfb-83" edge="1">
          <mxGeometry relative="1" as="geometry">
            <mxPoint x="1110" y="620" as="targetPoint" />
            <Array as="points">
              <mxPoint x="1133" y="380" />
              <mxPoint x="1210" y="380" />
              <mxPoint x="1210" y="620" />
            </Array>
          </mxGeometry>
        </mxCell>
        <mxCell id="ouxAtskDKZZMurjoeJfb-92" value="No" style="edgeLabel;html=1;align=center;verticalAlign=middle;resizable=0;points=[];" parent="ouxAtskDKZZMurjoeJfb-91" vertex="1" connectable="0">
          <mxGeometry x="-0.9368" y="1" relative="1" as="geometry">
            <mxPoint as="offset" />
          </mxGeometry>
        </mxCell>
        <mxCell id="ouxAtskDKZZMurjoeJfb-93" value="" style="edgeStyle=orthogonalEdgeStyle;rounded=0;orthogonalLoop=1;jettySize=auto;html=1;" parent="WIyWlLk6GJQsqaUBKTNV-1" source="ouxAtskDKZZMurjoeJfb-83" target="ouxAtskDKZZMurjoeJfb-89" edge="1">
          <mxGeometry relative="1" as="geometry" />
        </mxCell>
        <mxCell id="ouxAtskDKZZMurjoeJfb-94" value="Yes" style="edgeLabel;html=1;align=center;verticalAlign=middle;resizable=0;points=[];" parent="ouxAtskDKZZMurjoeJfb-93" vertex="1" connectable="0">
          <mxGeometry x="-0.1064" y="1" relative="1" as="geometry">
            <mxPoint as="offset" />
          </mxGeometry>
        </mxCell>
        <mxCell id="ouxAtskDKZZMurjoeJfb-83" value="Is Buffer&lt;div&gt;Data Byte?&lt;/div&gt;" style="rhombus;whiteSpace=wrap;html=1;" parent="WIyWlLk6GJQsqaUBKTNV-1" vertex="1">
          <mxGeometry x="1070" y="240" width="125" height="110" as="geometry" />
        </mxCell>
        <mxCell id="ouxAtskDKZZMurjoeJfb-87" value="" style="edgeStyle=orthogonalEdgeStyle;rounded=0;orthogonalLoop=1;jettySize=auto;html=1;" parent="WIyWlLk6GJQsqaUBKTNV-1" source="ouxAtskDKZZMurjoeJfb-57" target="ouxAtskDKZZMurjoeJfb-86" edge="1">
          <mxGeometry relative="1" as="geometry">
            <mxPoint x="843" y="295" as="sourcePoint" />
            <mxPoint x="1070" y="295" as="targetPoint" />
          </mxGeometry>
        </mxCell>
        <mxCell id="ouxAtskDKZZMurjoeJfb-86" value="Read Buffer" style="rounded=1;whiteSpace=wrap;html=1;" parent="WIyWlLk6GJQsqaUBKTNV-1" vertex="1">
          <mxGeometry x="910" y="265" width="120" height="60" as="geometry" />
        </mxCell>
        <mxCell id="ouxAtskDKZZMurjoeJfb-96" value="" style="edgeStyle=orthogonalEdgeStyle;rounded=0;orthogonalLoop=1;jettySize=auto;html=1;" parent="WIyWlLk6GJQsqaUBKTNV-1" source="ouxAtskDKZZMurjoeJfb-89" target="ouxAtskDKZZMurjoeJfb-95" edge="1">
          <mxGeometry relative="1" as="geometry" />
        </mxCell>
        <mxCell id="ouxAtskDKZZMurjoeJfb-109" value="Yes" style="edgeLabel;html=1;align=center;verticalAlign=middle;resizable=0;points=[];" parent="ouxAtskDKZZMurjoeJfb-96" vertex="1" connectable="0">
          <mxGeometry x="-0.6854" y="-1" relative="1" as="geometry">
            <mxPoint as="offset" />
          </mxGeometry>
        </mxCell>
        <mxCell id="ouxAtskDKZZMurjoeJfb-100" value="" style="edgeStyle=orthogonalEdgeStyle;rounded=0;orthogonalLoop=1;jettySize=auto;html=1;" parent="WIyWlLk6GJQsqaUBKTNV-1" source="ouxAtskDKZZMurjoeJfb-89" target="ouxAtskDKZZMurjoeJfb-90" edge="1">
          <mxGeometry relative="1" as="geometry" />
        </mxCell>
        <mxCell id="ouxAtskDKZZMurjoeJfb-111" value="No" style="edgeLabel;html=1;align=center;verticalAlign=middle;resizable=0;points=[];" parent="ouxAtskDKZZMurjoeJfb-100" vertex="1" connectable="0">
          <mxGeometry x="-0.1428" y="1" relative="1" as="geometry">
            <mxPoint as="offset" />
          </mxGeometry>
        </mxCell>
        <mxCell id="ouxAtskDKZZMurjoeJfb-89" value="Is This&amp;nbsp;&lt;div&gt;The First&amp;nbsp;&lt;/div&gt;&lt;div&gt;Data Byte?&lt;/div&gt;" style="rhombus;whiteSpace=wrap;html=1;" parent="WIyWlLk6GJQsqaUBKTNV-1" vertex="1">
          <mxGeometry x="1250" y="240" width="125" height="110" as="geometry" />
        </mxCell>
        <mxCell id="ouxAtskDKZZMurjoeJfb-104" value="" style="edgeStyle=orthogonalEdgeStyle;rounded=0;orthogonalLoop=1;jettySize=auto;html=1;" parent="WIyWlLk6GJQsqaUBKTNV-1" source="ouxAtskDKZZMurjoeJfb-90" target="ouxAtskDKZZMurjoeJfb-99" edge="1">
          <mxGeometry relative="1" as="geometry" />
        </mxCell>
        <mxCell id="ouxAtskDKZZMurjoeJfb-110" value="Yes" style="edgeLabel;html=1;align=center;verticalAlign=middle;resizable=0;points=[];" parent="ouxAtskDKZZMurjoeJfb-104" vertex="1" connectable="0">
          <mxGeometry x="-0.7254" y="-4" relative="1" as="geometry">
            <mxPoint x="4" as="offset" />
          </mxGeometry>
        </mxCell>
        <mxCell id="ouxAtskDKZZMurjoeJfb-107" style="edgeStyle=orthogonalEdgeStyle;rounded=0;orthogonalLoop=1;jettySize=auto;html=1;exitX=1;exitY=0.5;exitDx=0;exitDy=0;" parent="WIyWlLk6GJQsqaUBKTNV-1" source="ouxAtskDKZZMurjoeJfb-90" edge="1">
          <mxGeometry relative="1" as="geometry">
            <mxPoint x="1493" y="620" as="targetPoint" />
            <Array as="points">
              <mxPoint x="1575" y="295" />
              <mxPoint x="1575" y="620" />
            </Array>
          </mxGeometry>
        </mxCell>
        <mxCell id="ouxAtskDKZZMurjoeJfb-112" value="No" style="edgeLabel;html=1;align=center;verticalAlign=middle;resizable=0;points=[];" parent="ouxAtskDKZZMurjoeJfb-107" vertex="1" connectable="0">
          <mxGeometry x="-0.7899" y="-2" relative="1" as="geometry">
            <mxPoint as="offset" />
          </mxGeometry>
        </mxCell>
        <mxCell id="ouxAtskDKZZMurjoeJfb-90" value="Is This&lt;div&gt;Second&lt;/div&gt;&lt;div&gt;Data Byte?&lt;/div&gt;" style="rhombus;whiteSpace=wrap;html=1;" parent="WIyWlLk6GJQsqaUBKTNV-1" vertex="1">
          <mxGeometry x="1430" y="240" width="125" height="110" as="geometry" />
        </mxCell>
        <mxCell id="ouxAtskDKZZMurjoeJfb-97" style="edgeStyle=orthogonalEdgeStyle;rounded=0;orthogonalLoop=1;jettySize=auto;html=1;" parent="WIyWlLk6GJQsqaUBKTNV-1" source="ouxAtskDKZZMurjoeJfb-95" edge="1">
          <mxGeometry relative="1" as="geometry">
            <mxPoint x="1210" y="620" as="targetPoint" />
            <Array as="points">
              <mxPoint x="1310" y="620" />
            </Array>
          </mxGeometry>
        </mxCell>
        <mxCell id="ouxAtskDKZZMurjoeJfb-95" value="Store As Velocity&lt;div&gt;Byte&lt;/div&gt;" style="rounded=1;whiteSpace=wrap;html=1;" parent="WIyWlLk6GJQsqaUBKTNV-1" vertex="1">
          <mxGeometry x="1252.5" y="380" width="120" height="60" as="geometry" />
        </mxCell>
        <mxCell id="ouxAtskDKZZMurjoeJfb-106" style="edgeStyle=orthogonalEdgeStyle;rounded=0;orthogonalLoop=1;jettySize=auto;html=1;" parent="WIyWlLk6GJQsqaUBKTNV-1" source="ouxAtskDKZZMurjoeJfb-99" edge="1">
          <mxGeometry relative="1" as="geometry">
            <mxPoint x="1310" y="620" as="targetPoint" />
            <Array as="points">
              <mxPoint x="1493" y="620" />
            </Array>
          </mxGeometry>
        </mxCell>
        <mxCell id="ouxAtskDKZZMurjoeJfb-99" value="Store As Velocity&lt;div&gt;Byte&lt;/div&gt;" style="rounded=1;whiteSpace=wrap;html=1;" parent="WIyWlLk6GJQsqaUBKTNV-1" vertex="1">
          <mxGeometry x="1432.5" y="380" width="120" height="60" as="geometry" />
        </mxCell>
      </root>
    </mxGraphModel>
  </diagram>
</mxfile>
